<?xml version="1.0" encoding="utf-8"?>
<?xml-stylesheet type="text/xsl" href="rss1.xsl"?>
<rss version="2.0" xmlns:atom="http://www.w3.org/2005/Atom" xmlns:content="http://purl.org/rss/1.0/modules/content/" xmlns:dc="http://purl.org/dc/elements/1.1/" xmlns:media="http://search.yahoo.com/mrss/">
<channel>
 <title>Getty</title>
 <link>http://www.gettyimg.com/</link>
 <atom:link href="http://www.gettyimg.com/" rel="self" type="application/rss+xml" />

 
                <item>
                <title><![CDATA[【Singles (lossy)】M4A - Faithless - We Come 1 (Remixes) [M4A ALAC 44100hz 16bps]]]></title>
                <link><![CDATA[https://sharemania.us/threads/faithless-we-come-1-remixes-m4a-alac-44100hz-16bps.242044/]]></link>
                <description><![CDATA[<article>
<blockquote class="messageText SelectQuoteContainer ugc baseHtml">
<img src="https://i.imgur.com/GYaPdDP.jpeg" class="bbCodeImage LbImage" alt="[​IMG]" data-url="https://i.imgur.com/GYaPdDP.jpeg" style=""> <br>
<br>
<b><span style="font-size: 22px"><span style="color: #99ccff">Faithless - We Come 1 (Remixes)</span></span></b><br>
<i>Genre: Progressive Trance/Trance/Uk Garage/Techno/Deep House/Tech House/Tribal House</i><br>
<br>
All tracks are in M4A ALAC 44100hz 16bps.<br>
<br>
Tracks:<br>
<br>
<b><span style="font-size: 12px">01 We Come 1 (Radio Mix) 03:47 <br>
02 We Come 1 (Rollo &amp; Sister Bliss Remix) 08:35 <br>
03 We Come 1 (Pierre Hiver &amp; M. Hammer Remix) 08:09 <br>
04 We Come 1 (Dave Clarke Remix) 06:07 <br>
05 We Come 1 (Eliot J Remix) 06:51 <br>
06 We Come 1 (Wookie Remix) 05:52 <br>
07 We Come 1 (Rocket Vs Jeno Remix) 07:55 <br>
08 We Come 1 (Ibi's Remix) 07:06 </span></b><br>
<br>
Support Faithless and buy the music!<br>
<a href="https://music.apple.com/us/artist/faithless/20605" target="_blank" class="externalLink" rel="nofollow"><b><span style="color: #4da6ff">‎Faithless - Apple Music</span></b></a><br>
<br>
Credits to me for this awesome album cover! <img src="styles/default/xenforo/smilies/exciting-48.png" class="mceSmilie" alt=":D" title="Big Grin    :D"><br>
<br>
<br>
<div class="bbCodeBlock bbCodeVfcHH HiddenContent">
<div class="attribution type">Hidden Content:</div>
<blockquote>You must reply before you can see the hidden data contained here.</blockquote>
</div>
<div class="messageTextEndMarker">&nbsp;</div>
</blockquote>
</article>]]></description>
                <author><![CDATA[EvertNL]]></author>
                </item>

                
                <item>
                <title><![CDATA[【Apple Music】WEB-RiP - 5 Seconds Of Summer - Youngblood [Apple HD Music Video]]]></title>
                <link><![CDATA[https://sharemania.us/threads/5-seconds-of-summer-youngblood-apple-hd-music-video.242046/]]></link>
                <description><![CDATA[<article>
<blockquote class="messageText SelectQuoteContainer ugc baseHtml">
<span style="font-size: 22px"><b>5 Seconds Of Summer - Youngblood [Apple HD Music Video]</b></span><br>
<br>
<img src="https://imgur.com/XlvpwDC.jpg" class="bbCodeImage LbImage" alt="[​IMG]" data-url="https://imgur.com/XlvpwDC.jpg" style=""><br>
<br>
<div class="bbCodeBlock bbCodeCode">
<div class="type">Code:</div>
<pre>General
Format                         : MPEG-4
Codec ID                       : M4V  (isom/M4V /mp42)
File size                      : 281 MiB
Duration                       : 3 min 49 s
Overall bit rate mode          : Variable
Overall bit rate               : 10.3 Mb/s
Movie name                     : Youngblood
Performer                      : 5 Seconds of Summer
Genre                          : Pop
ContentType                    : Music Video
Recorded date                  : UTC 2018-08-02 07:00:00
Encoded date                   : UTC 2024-03-16 13:39:44
Tagged date                    : UTC 2024-03-16 13:39:44
Copyright                      : A Capitol Records UK Video; ℗ 2018 One Mode Productions Limited, under exclusive licence to Universal Music Operations Limited
Cover                          : Yes
Rating                         : Explicit
GenreID                        : 1614
AppleStoreCountry              : Canada
AlbumTitleID                   : 538811449
AppleStoreCatalogID            : 1421118911

Video
ID                             : 2
Format                         : AVC
Format/Info                    : Advanced Video Codec
Format profile                 : High@L4
Format settings                : CABAC / 4 Ref Frames
Format settings, CABAC         : Yes
Format settings, Reference fra : 4 frames
Codec ID                       : avc1
Codec ID/Info                  : Advanced Video Coding
Duration                       : 3 min 49 s
Source duration                : 3 min 49 s
Source_Duration_LastFrame      : -1 ms
Bit rate                       : 9 593 kb/s
Maximum bit rate               : 23.7 Mb/s
Width                          : 1 912 pixels
Height                         : 1 072 pixels
Display aspect ratio           : 16:9
Frame rate mode                : Constant
Frame rate                     : 23.976 (24000/1001) FPS
Color space                    : YUV
Chroma subsampling             : 4:2:0
Bit depth                      : 8 bits
Scan type                      : Progressive
Bits/(Pixel*Frame)             : 0.195
Stream size                    : 263 MiB (93%)
Source stream size             : 274 MiB (97%)
Title                          : Core Media Video
Language                       : English
Encoded date                   : UTC 2024-03-04 06:17:00
Tagged date                    : UTC 2024-03-16 13:39:52
Color range                    : Limited
Color primaries                : BT.709
Transfer characteristics       : BT.709
Matrix coefficients            : BT.709
mdhd_Duration                  : 229895
Codec configuration box        : avcC

Audio
ID                             : 1
Format                         : AAC LC
Format/Info                    : Advanced Audio Codec Low Complexity
Codec ID                       : mp4a-40-2
Duration                       : 3 min 49 s
Duration_LastFrame             : -12 ms
Bit rate mode                  : Variable
Bit rate                       : 256 kb/s
Maximum bit rate               : 333 kb/s
Channel(s)                     : 2 channels
Channel layout                 : L R
Sampling rate                  : 48.0 kHz
Frame rate                     : 46.875 FPS (1024 SPF)
Compression mode               : Lossy
Stream size                    : 7.01 MiB (2%)
Title                          : Core Media Audio
Encoded date                   : UTC 2024-03-04 06:16:46
Tagged date                    : UTC 2024-03-16 13:39:52

Text
ID                             : 3-CC1
Format                         : EIA-608
Muxing mode                    : Final Cut
Codec ID                       : c608
Duration                       : 3 min 39 s
Duration of the visible conten : 3 min 35 s
Start time                     : 3 s 854 ms
End time                       : 3 min 39 s
End time (commands)            : 3 min 39 s
Bit rate mode                  : Constant
Maximum bit rate               : 1 440 b/s
Frame rate                     : 0.373 FPS
Stream size                    : 0.00 Byte (0%)
Title                          : Core Media Closed Caption
Language                       : English
Forced                         : No
Encoded date                   : UTC 2024-03-04 06:17:00
Tagged date                    : UTC 2024-03-16 13:39:52
Count of events                : 63
Count of PopOn events          : 63
Count of lines                 : 115
Maximum count of lines per eve : 3
Count of frames before first e : 0
Type of the first event        : PopOn
</pre>
</div>
<div class="bbCodeBlock bbCodeVfcHH HiddenContent">
<div class="attribution type">Hidden Content:</div>
<blockquote>You must reply before you can see the hidden data contained here.</blockquote>
</div>
<div class="messageTextEndMarker">&nbsp;</div>
</blockquote>
</article>]]></description>
                <author><![CDATA[abby0511]]></author>
                </item>

                
                <item>
                <title><![CDATA[【Albums (lossless)】PACK - DUDA BEAT - Discografia | Qobuz CD &amp; Hi-Res | .FLAC 16-24bits ／ 44.1kHz &amp; 48.0kHz]]></title>
                <link><![CDATA[https://sharemania.us/threads/duda-beat-discografia-qobuz-cd-hi-res-flac-16-24bits-%EF%BC%8F-44-1khz-48-0khz.242045/]]></link>
                <description><![CDATA[<article>
<blockquote class="messageText SelectQuoteContainer ugc baseHtml">
thanks
<div class="messageTextEndMarker">&nbsp;</div>
</blockquote>
</article>]]></description>
                <author><![CDATA[Nuric]]></author>
                </item>

                
                <item>
                <title><![CDATA[【Albums (lossless)】FLAC - TINI - un mechón de pelo | Tidal RIP | FLAC]]></title>
                <link><![CDATA[https://sharemania.us/threads/tini-un-mech%C3%B3n-de-pelo-tidal-rip-flac.242047/]]></link>
                <description><![CDATA[<article>
<blockquote class="messageText SelectQuoteContainer ugc baseHtml">
Thanks.
<div class="messageTextEndMarker">&nbsp;</div>
</blockquote>
</article>]]></description>
                <author><![CDATA[Batt1023]]></author>
                </item>

                </channel></rss>